<?xml version="1.0" encoding="utf-8"?>
<!-- Generator: Adobe Illustrator 16.0.3, SVG Export Plug-In . SVG Version: 6.00 Build 0)  -->
<!DOCTYPE svg PUBLIC "-//W3C//DTD SVG 1.1//EN" "http://www.w3.org/Graphics/SVG/1.1/DTD/svg11.dtd">
<svg version="1.1" xmlns="http://www.w3.org/2000/svg" xmlns:xlink="http://www.w3.org/1999/xlink" x="0px" y="0px"
	 width="595.28px" height="841.89px" viewBox="0 0 595.28 841.89" enable-background="new 0 0 595.28 841.89" xml:space="preserve">
<g id="Vrstva_2">
</g>
<g id="Layer_1">
	<g id="XMLID_1_">
		<g>
			<path fill="#FFFFFF" d="M476.035,152.19c52.124,86.591,78.464,69.085,78.464,69.085c0.951,61.937-58.715,9.731-59.897,8.685
				c39.334,90.927,65.579,58.145,65.579,58.145c-20.115,92.164-82.405-5.708-82.405-5.708
				c52.368,110.866,76.724,89.921,76.724,89.921c-35.283,91.28-110.362-63.649-112.184-67.414
				c66.91,167.012,112.211,141.406,112.211,141.406c-54.883,112.429-154.861-131.552-154.861-131.552
				c12.464,112.062,46.388,135.344,46.388,135.344c-65.456,30.187-79.932-75.46-82.024-94.909
				c8.25-36.493,11.702-75.283-7.054-85.585c-1.251-0.68-2.379-1.4-3.412-2.161l0.109-0.149c7.761-20.21,39.13-9.542,51.416-9.5
				c57.384,0.177,25.987-84.213,25.987-84.213c-8.658,20.387-24.547,28.937-24.547,28.937
				c23.826-55.943-44.39-77.009-15.331-108.229c14.706-15.82,50.588-3.112,72.593-0.598c22.018,2.528,48.752-32.388,64.097-18.851
				c0,0-15.793,3.343-22.915,15.25c-9.637,16.106-19.49,19.395-19.49,19.395c51.009,60.631,71.913,42.867,71.913,42.867
				C548.465,223.423,477.517,153.645,476.035,152.19z"/>
			<path fill="#FFFFFF" d="M488.961,539.914c-0.829-0.136-1.373-0.218-1.55-0.245C487.888,539.818,488.403,539.9,488.961,539.914z
				 M489.002,539.914c5.654,0.884,24.723,3.737,39.605,4.553c16.785,0.911,32.932,13.116,15.046,39.226
				c0,0-4.58-14.435-10.833-15.209c0,0-13.89,19.3-22.018,5.586c-3.099-5.232-5.872-10.71-3.425-15.997
				c-0.856,1.686-4.676,8.264-10.112,3.724c-8.998-7.475-35.257-15.1-37.689-3.14c-0.19,0.897-0.23,1.903-0.136,3.018
				c1.332,14.883-12.396,22.738-26.83,6.021c0,0,1.196,13.591,5.654,21.053c0,0-30.485-9.052-12.15-32.253
				c3.466-4.376,12.028-13.944,16.595-15.154c0,0-27.428-30.309-46.551-21.039c-0.476,0.23-2.065,1.604-2.514,1.794
				c0.149-5.505-0.231-10.887-1.373-15.807c-1.006-4.269-2.583-8.183-4.92-11.526c0,0,9.16-1.998,18.864-6.252l36.86,23.486
				c0,0,20.51,10.765,34.89-13.007c12.15-20.089,41.345-21.679,39.089,9.27c0,0-4.077-5.899-9.854-6.619
				c0,0,1.767,18.538-13.605,10.356c0,0-4.063,12.518-17.058,11.362c0,0,12.464,7.951,36.018-7.842
				c2.243-1.495,4.458-2.786,6.633-3.888c25.498-12.816,46.021,1.373,34.224,26.966c0,0-7.395-15.236-10.371-13.619
				c-0.23,0.381-15.276,28.461-27.849,2.597C515.192,527.573,497.442,540.227,489.002,539.914z"/>
			<path fill="#FFFFFF" d="M298.436,119.87c-0.014-0.027-0.014-0.027-0.014-0.027l-15.045-0.082l-5.764-0.027
				c-3.955,0.136-5.545,19.843,10.344,18.158C302.771,136.315,298.64,120.617,298.436,119.87z M325.564,489.707
				c29.33,36.928,4.743,69.018-4.621,95.29c-3.099,8.712-0.774,46.728,29.779,42.16c30.553-4.566,12.028-29.112,12.028-29.112
				c51.009,0.72,21.896,37.771,21.896,37.771c24.791,3.86,30.322-25.267,64.723-27.903c96.336-7.407,73.394,77.227,73.394,77.227
				c-0.965,0.734-11.43-69.411-80.244-3.357c-68.813,66.041-130.776-16.73-130.776-16.73c1.535,26.884,16.962,45.382,17.438,45.952
				c-22.725-9.486-26.259,11.39-26.259,11.39s-3.806-13.604-27.265-13.061c0,0,25.62-29.235,17.506-44.757
				c0,0-36.521,95.167-132.041,17.683c-76.724-62.235-76.207,11.362-76.207,11.362c-7.584-8.291-14.258-30.486-5.776-49.16
				c36.071-79.307,135.167-6.715,135.167-6.715c-17.818-42.106,27.428-38.98,27.428-38.98c-6.497,11.553-3.371,35.135,21.107,33.15
				c49.704-4.037,17.41-68.107,4.159-88.644c-10.234-15.875-2.583-31.846,4.798-41.767c3.112-3.575,6.156-6.932,9.038-9.977
				c-0.271,0.231-4.607,4.01-9.038,9.977c-24.628,28.093-54.435,68.867-54.435,68.867c-9.486-10.832-9.527-32.307-7.516-49.894
				c1.727-15.223,4.988-27.523,4.988-27.523c-4.513-1.06-8.44-2.174-11.839-3.289c-20.768-6.85-22.14-14.094-22.14-14.094
				c90.465-2.827,76.506-69.779,55.1-109.71c-1.658-3.085-3.126-6.13-4.417-9.106c-16.827-38.804-3.521-67.645,10.465-84.906
				c9.936-12.287,20.211-18.716,20.211-18.716c-24.995-26.435-37.567-15.888-37.567-15.888c8.658-34.998,40.177,8.78,58.824-9.623
				s1.387-35.487,1.387-35.487c40.421-21.841,20.033-44.39,1.617-45.653c-14.584-1.006-24.356-15.345-24.356-15.345
				c18.403-8.481,0-22.372,0-22.372h74.346c31.22,38.804,42.895,37.648,42.895,37.648c-10.873,9.202-23.037,1.631-29.439-3.846
				c-1.386-1.481-2.895-2.936-4.525-4.39c0,0,1.712,1.998,4.525,4.39c43.819,46.388-28.582,101.352,3.643,124.878
				c1.033,0.761,2.161,1.481,3.412,2.161c18.756,10.302,15.304,49.092,7.054,85.585c-8.386,37.078-21.719,71.776-21.719,71.776
				c34.997,51.254,84.933,44.879,84.933,44.879c-3.548,7.421-12.504,12.912-21.026,16.663c-9.704,4.254-18.864,6.252-18.864,6.252
				c2.337,3.344,3.914,7.258,4.92,11.526c1.142,4.92,1.522,10.302,1.373,15.807c-0.653,23.703-11.063,49.541-11.063,49.541
				C370.145,544.889,329.356,494.383,325.564,489.707z"/>
			<path fill="#FFFFFF" d="M517.055,508.26l2.134,3.37c-2.175,1.102-4.39,2.393-6.633,3.888
				c-23.554,15.793-36.018,7.842-36.018,7.842c12.994,1.155,17.058-11.362,17.058-11.362c15.372,8.182,13.605-10.356,13.605-10.356
				C512.978,502.36,517.055,508.26,517.055,508.26z"/>
			<path fill="#FFFFFF" d="M488.961,539.914c-0.558-0.014-1.073-0.096-1.55-0.245C487.588,539.696,488.132,539.778,488.961,539.914z
				"/>
			<path fill="#FFFFFF" d="M345.395,138.177c1.631,1.455,3.14,2.909,4.525,4.39C347.106,140.175,345.395,138.177,345.395,138.177z"
				/>
			<path fill="#FFFFFF" d="M275.113,76.649l23.73-20.306l22.793,20.306c14.569-9.474,28.393-12.953,28.393-12.953
				c-6.021,7.258-9.99,24.464-12.002,35.406c-1.046,5.681-1.563,9.663-1.563,9.663h-74.346
				c-1.128-22.059-13.347-43.139-13.347-43.139C254.563,62.337,275.113,76.649,275.113,76.649z"/>
			<path fill="#FFFFFF" d="M283.377,119.761l15.045,0.082c0,0,0,0,0.014,0.027c0.204,0.748,4.336,16.446-10.479,18.022
				c-15.889,1.685-14.299-18.022-10.344-18.158L283.377,119.761z"/>
			<path fill="#FFFFFF" d="M294.983,169.995c2.12-6.035,0.354-12.926-5.097-13.075c-21.406-0.598-26.436-7.489-32.932-12.545
				c-6.497-5.056-11.553,0-11.553,0c-10.615-5.382-12.776-19.463-3.847-22.861c6.673-2.542,20.563-12.749,20.563-12.749
				s18.403,13.891,0,22.372c0,0,9.772,14.339,24.356,15.345c18.416,1.264,38.804,23.812-1.617,45.653
				c-9.637,0.449-25.267,6.619-25.267,6.619c0.244-3.615,4.824-19.477,23.336-19.735c0.639-0.014,1.265-0.054,1.849-0.149
				c0.014,0,0.014,0,0.014,0C290.132,178.082,293.516,174.249,294.983,169.995z"/>
			<path fill="#FFFFFF" d="M294.983,169.995c-1.468,4.254-4.852,8.087-10.193,8.875c0,0,0,0-0.014,0
				c-8.413-2.487-26.422-6.497-44.702-2.147c-16.16,3.833-39.157-17.873-24.37-28.882c2.025,3.438,7.544,16.432,26.708,14.625
				C256.343,161.147,283.104,163.852,294.983,169.995z"/>
			<path fill="#FFFFFF" d="M280.835,491.528c-2.882,3.045-5.926,6.401-9.038,9.977C276.228,495.538,280.563,491.76,280.835,491.528z
				"/>
			<path fill="#FFFFFF" d="M100.055,239.216c-1.155,0.843-63.01,45.599-62.059-16.378c0,0,28.868,16.364,69.275-60.618
				c-1.277,1.196-63.58,59.49-72.17-4.349c0,0,19.734,14.923,70.743-45.708c0,0-6.429-2.039-14.924-18.77
				c-7.706-15.209-25.796-20.401-25.796-20.401c15.331-13.523,45.109,22.562,67.128,20.034c22.019-2.528,54.406-13.836,69.112,1.984
				c29.059,31.22-38.79,56.853-14.978,112.782c0,0-12.626,0-21.298-20.387c0,0-28.501,72.007,28.882,71.817
				c12.287-0.027,40.258-7.598,48.019,12.613l0.014,0.014c-13.985,17.261-27.292,46.102-10.465,84.906
				c-0.231,8.712-4.526,112.211-78.179,100.794c0,0,32.131-34.645,37.187-140.4c0,0-70.744,244.701-149.792,133.183
				c0,0,45.845,34.535,112.238-141.46c-1.155,1.903-97.912,160.366-117.892,62.657c0,0,19.259,37.322,87.08-90.9
				c-1.59,2.08-75.188,98.13-87.08,11.499C35.102,292.128,53.871,319.08,100.055,239.216z"/>
			<path fill="#FFFFFF" d="M93.979,560.75c4.036,4.213,7.529,10.724,4.39,16.024c-8.127,13.713-20.482,1.358-20.482,1.358
				c-5.056,0.354-6.769,8.658-6.769,8.658c-17.899-26.109-4.824-35.012,11.865-36.996c16.69-1.984,35.148-9.433,35.148-9.433
				c-7.489,2.446-31.587-4.104-31.587-4.104c-14.883,18.498-24.003-0.625-24.003-0.625c-2.977-1.631-8.834,8.209-8.834,8.209
				c-12.817-27.795,14.366-45.844,42.772-26.803c23.54,15.794,36.004,7.856,36.004,7.856c-12.994,1.142-17.058-11.376-17.058-11.376
				c-13.918,7.421-12.912-8.033-12.6-10.982c0.027-0.299,0.055-0.476,0.055-0.476c-5.776,0.721-8.93,7.68-8.93,7.68
				c-2.256-30.948,21.828-32.308,34.821-7.761c12.993,24.532,37.173,11.539,37.173,11.539l36.969-23.445l0.081-0.408
				c3.398,1.115,7.326,2.229,11.839,3.289c0,0-3.262,12.301-4.988,27.523l-1.346-0.123c-18.213-3.629-38.694,21.081-38.694,21.081
				c4.566,1.209,14.066,15.276,14.066,15.276c15.154,25.389-10.588,33.571-10.588,33.571c5.301-6.741-1.563-19.49-1.563-19.49
				c-13.469,14.557-20.347,6.225-19.001-8.672c1.44-16.119-30.853-6.252-40.965,1.21C103.208,569.652,95.066,561.864,93.979,560.75z
				"/>
		</g>
		<g>
			<path fill="none" stroke="#000000" stroke-width="3" stroke-miterlimit="10" d="M476.035,152.19
				c1.481,1.455,72.43,71.233,81.359,0.163c0,0-20.904,17.764-71.913-42.867c0,0,9.854-3.289,19.49-19.395
				c7.122-11.906,22.915-15.25,22.915-15.25c-15.345-13.537-42.079,21.379-64.097,18.851c-22.005-2.514-57.887-15.222-72.593,0.598
				c-29.059,31.22,39.157,52.286,15.331,108.229c0,0,15.889-8.549,24.547-28.937c0,0,31.396,84.39-25.987,84.213
				c-12.286-0.041-43.655-10.71-51.416,9.5"/>
			<path fill="none" stroke="#000000" stroke-width="3" stroke-miterlimit="10" d="M494.602,229.96
				c1.183,1.046,60.849,53.251,59.897-8.685c0,0-26.34,17.506-78.464-69.085c-0.014-0.013-0.026-0.013-0.026-0.027"/>
			<path fill="none" stroke="#000000" stroke-width="3" stroke-miterlimit="10" d="M442.288,304.836
				c0.014,0.027,0.014,0.041,0.027,0.068c1.821,3.765,76.9,158.694,112.184,67.414c0,0-24.355,20.945-76.724-89.921
				c0,0,62.29,97.872,82.405,5.708c0,0-26.245,32.782-65.579-58.145l-0.014-0.014"/>
			<path fill="none" stroke="#000000" stroke-width="3" stroke-miterlimit="10" d="M364.028,355.192
				c2.093,19.449,16.568,125.096,82.024,94.909c0,0-33.924-23.282-46.388-135.344c0,0,99.979,243.98,154.861,131.552
				c0,0-45.301,25.606-112.211-141.406"/>
			<path fill="none" stroke="#000000" stroke-width="3" stroke-miterlimit="10" d="M329.193,711.017l-0.014-0.014
				c-22.725-9.486-26.259,11.39-26.259,11.39s-3.806-13.604-27.265-13.061c0,0,25.62-29.235,17.506-44.757
				c0,0-36.521,95.167-132.041,17.683c-76.724-62.235-76.207,11.362-76.207,11.362c-7.584-8.291-14.258-30.486-5.776-49.16
				c36.071-79.307,135.167-6.715,135.167-6.715c-17.818-42.106,27.428-38.98,27.428-38.98c-6.497,11.553-3.371,35.135,21.107,33.15
				c49.704-4.037,17.41-68.107,4.159-88.644c-10.234-15.875-2.583-31.846,4.798-41.767c4.431-5.967,8.767-9.745,9.038-9.977"/>
			<path fill="none" stroke="#000000" stroke-width="3" stroke-miterlimit="10" d="M325.279,489.354
				c0.04,0.055,0.081,0.109,0.122,0.163c0.041,0.041,0.095,0.109,0.163,0.19c29.33,36.928,4.743,69.018-4.621,95.29
				c-3.099,8.712-0.774,46.728,29.779,42.16c30.553-4.566,12.028-29.112,12.028-29.112c51.009,0.72,21.896,37.771,21.896,37.771
				c24.791,3.86,30.322-25.267,64.723-27.903c96.336-7.407,73.394,77.227,73.394,77.227c-0.965,0.734-11.43-69.411-80.244-3.357
				c-68.813,66.041-130.776-16.73-130.776-16.73c1.535,26.884,16.962,45.382,17.438,45.952"/>
			<path fill="none" stroke="#000000" stroke-width="3" stroke-miterlimit="10" d="M349.92,142.567
				c43.819,46.388-28.582,101.352,3.643,124.878c1.033,0.761,2.161,1.481,3.412,2.161c18.756,10.302,15.304,49.092,7.054,85.585
				c-8.386,37.078-21.719,71.776-21.719,71.776c34.997,51.254,84.933,44.879,84.933,44.879
				c-3.548,7.421-12.504,12.912-21.026,16.663c-9.704,4.254-18.864,6.252-18.864,6.252c2.337,3.344,3.914,7.258,4.92,11.526
				c1.142,4.92,1.522,10.302,1.373,15.807c-0.653,23.703-11.063,49.541-11.063,49.541c-12.437-26.748-53.225-77.254-57.017-81.93"/>
			<path fill="none" stroke="#000000" stroke-width="3" stroke-miterlimit="10" d="M349.92,142.567
				c-2.813-2.392-4.525-4.39-4.525-4.39C347.025,139.632,348.534,141.086,349.92,142.567z"/>
			<path fill="none" stroke="#000000" stroke-width="3" stroke-miterlimit="10" d="M280.849,491.515l-0.014,0.014
				c-2.882,3.045-5.926,6.401-9.038,9.977c-24.628,28.093-54.435,68.867-54.435,68.867c-9.486-10.832-9.527-32.307-7.516-49.894
				c1.727-15.223,4.988-27.523,4.988-27.523c-4.513-1.06-8.44-2.174-11.839-3.289c-20.768-6.85-22.14-14.094-22.14-14.094
				c90.465-2.827,76.506-69.779,55.1-109.71c-1.658-3.085-3.126-6.13-4.417-9.106c-16.827-38.804-3.521-67.645,10.465-84.906
				c9.936-12.287,20.211-18.716,20.211-18.716c-24.995-26.435-37.567-15.888-37.567-15.888c8.658-34.998,40.177,8.78,58.824-9.623
				s1.387-35.487,1.387-35.487c40.421-21.841,20.033-44.39,1.617-45.653c-14.584-1.006-24.356-15.345-24.356-15.345
				c18.403-8.481,0-22.372,0-22.372h74.346c31.22,38.804,42.895,37.648,42.895,37.648c-10.873,9.202-23.037,1.631-29.439-3.846"/>
			<path fill="none" stroke="#000000" stroke-width="3" stroke-miterlimit="10" d="M107.285,162.207c0,0,0,0.014-0.014,0.014
				c-1.277,1.196-63.58,59.49-72.17-4.349c0,0,19.734,14.923,70.743-45.708c0,0-6.429-2.039-14.924-18.77
				c-7.706-15.209-25.796-20.401-25.796-20.401c15.331-13.523,45.109,22.562,67.128,20.034c22.019-2.528,54.406-13.836,69.112,1.984
				c29.059,31.22-38.79,56.853-14.978,112.782c0,0-12.626,0-21.298-20.387c0,0-28.501,72.007,28.882,71.817
				c12.287-0.027,40.258-7.598,48.019,12.613"/>
			<path fill="none" stroke="#000000" stroke-width="3" stroke-miterlimit="10" d="M100.068,239.203c0,0,0,0.014-0.014,0.014
				c-1.155,0.843-63.01,45.599-62.059-16.378c0,0,28.868,16.364,69.275-60.618"/>
			<path fill="none" stroke="#000000" stroke-width="3" stroke-miterlimit="10" d="M122.209,280.589
				c-0.014,0.014-0.014,0.027-0.027,0.041c-1.59,2.08-75.188,98.13-87.08,11.499c0,0,18.77,26.952,64.953-52.912"/>
			<path fill="none" stroke="#000000" stroke-width="3" stroke-miterlimit="10" d="M153.007,308.859l-0.014,0.014
				c-1.155,1.903-97.912,160.366-117.892,62.657c0,0,19.259,37.322,87.08-90.9"/>
			<path fill="none" stroke="#000000" stroke-width="3" stroke-miterlimit="10" d="M231.539,356.755
				c-0.231,8.712-4.526,112.211-78.179,100.794c0,0,32.131-34.645,37.187-140.4c0,0-70.744,244.701-149.792,133.183
				c0,0,45.845,34.535,112.238-141.46"/>
			<path fill="none" stroke="#000000" stroke-width="3" stroke-miterlimit="10" d="M507.554,557.705
				c-0.013,0.014-0.013,0.027-0.026,0.041c0,0.014-0.014,0.041-0.027,0.067c-0.027,0.041-0.041,0.096-0.055,0.137
				c-0.027,0.026-0.041,0.054-0.055,0.095c-0.013,0.014-0.013,0.027-0.013,0.027c-0.856,1.686-4.676,8.264-10.112,3.724
				c-8.998-7.475-35.257-15.1-37.689-3.14c-0.19,0.897-0.23,1.903-0.136,3.018c1.332,14.883-12.396,22.738-26.83,6.021
				c0,0,1.196,13.591,5.654,21.053c0,0-30.485-9.052-12.15-32.253c3.466-4.376,12.028-13.944,16.595-15.154
				c0,0-27.428-30.309-46.551-21.039c-0.476,0.23-2.065,1.604-2.514,1.794"/>
			<path fill="none" stroke="#000000" stroke-width="3" stroke-miterlimit="10" d="M489.002,539.914
				c5.654,0.884,24.723,3.737,39.605,4.553c16.785,0.911,32.932,13.116,15.046,39.226c0,0-4.58-14.435-10.833-15.209
				c0,0-13.89,19.3-22.018,5.586c-3.099-5.232-5.872-10.71-3.425-15.997"/>
			<path fill="none" stroke="#000000" stroke-width="3" stroke-miterlimit="10" d="M487.411,539.669
				c0.177,0.027,0.721,0.109,1.55,0.245"/>
			<path fill="none" stroke="#000000" stroke-width="3" stroke-miterlimit="10" d="M488.961,539.914
				c-0.558-0.014-1.073-0.096-1.55-0.245c-0.026,0-0.04,0-0.067-0.014"/>
			<path fill="none" stroke="#000000" stroke-width="3" stroke-miterlimit="10" d="M488.961,539.914
				c0.014,0.014,0.027,0.014,0.041,0"/>
			<path fill="none" stroke="#000000" stroke-width="3" stroke-miterlimit="10" d="M406.216,488.511l36.86,23.486
				c0,0,20.51,10.765,34.89-13.007c12.15-20.089,41.345-21.679,39.089,9.27c0,0-4.077-5.899-9.854-6.619
				c0,0,1.767,18.538-13.605,10.356c0,0-4.063,12.518-17.058,11.362c0,0,12.464,7.951,36.018-7.842
				c2.243-1.495,4.458-2.786,6.633-3.888c25.498-12.816,46.021,1.373,34.224,26.966c0,0-7.395-15.236-10.371-13.619
				c-0.23,0.381-15.276,28.461-27.849,2.597c0,0-17.75,12.653-26.19,12.341"/>
			<path fill="none" stroke="#000000" stroke-width="3" stroke-miterlimit="10" d="M541.547,514.811
				c-1.02,3.194-0.422,12.45-0.422,12.45"/>
			<path fill="none" stroke="#000000" stroke-width="3" stroke-miterlimit="10" d="M504.075,494.179
				c0,3.737,3.126,7.462,3.126,7.462"/>
			<path fill="none" stroke="#000000" stroke-width="3" stroke-miterlimit="10" d="M407.793,509.021
				c-3.412,0-10.356-1.359-15.521-2.731"/>
			<path fill="none" stroke="#000000" stroke-width="3" stroke-miterlimit="10" d="M535.716,557.705
				c-3.018,4.091-3.385,10.778-3.385,10.778"/>
			
				<line fill="none" stroke="#000000" stroke-width="3" stroke-miterlimit="10" x1="454.928" y1="557.937" x2="459.44" y2="561.674"/>
			<polyline fill="none" stroke="#000000" stroke-width="3" stroke-miterlimit="10" points="459.875,558.738 459.576,558.656 
				455.472,557.569 			"/>
			<path fill="none" stroke="#000000" stroke-width="3" stroke-miterlimit="10" d="M93.857,560.627
				c0.04,0.041,0.081,0.082,0.122,0.123c1.087,1.114,9.229,8.902,17.777,2.582c10.112-7.462,42.405-17.329,40.965-1.21
				c-1.346,14.896,5.532,23.229,19.001,8.672c0,0,6.863,12.749,1.563,19.49c0,0,25.742-8.183,10.588-33.571
				c0,0-9.5-14.067-14.066-15.276c0,0,20.481-24.71,38.694-21.081"/>
			<path fill="none" stroke="#000000" stroke-width="3" stroke-miterlimit="10" d="M202.915,490.074l-36.969,23.445
				c0,0-24.18,12.993-37.173-11.539c-12.993-24.547-37.077-23.188-34.821,7.761c0,0,3.153-6.959,8.93-7.68
				c0,0-0.027,0.177-0.055,0.476c-0.313,2.949-1.318,18.403,12.6,10.982c0,0,4.063,12.518,17.058,11.376
				c0,0-12.464,7.938-36.004-7.856c-28.406-19.041-55.59-0.992-42.772,26.803c0,0,5.857-9.84,8.834-8.209
				c0,0,9.12,19.123,24.003,0.625c0,0,24.098,6.551,31.587,4.104c0,0-18.458,7.448-35.148,9.433
				c-16.689,1.984-29.765,10.887-11.865,36.996c0,0,1.713-8.305,6.769-8.658c0,0,12.355,12.354,20.482-1.358
				c3.14-5.301-0.354-11.812-4.39-16.024"/>
			
				<line fill="none" stroke="#000000" stroke-width="3" stroke-miterlimit="10" x1="63.901" y1="521.471" x2="63.534" y2="536.177"/>
			
				<line fill="none" stroke="#000000" stroke-width="3" stroke-miterlimit="10" x1="86.463" y1="529.761" x2="86.735" y2="535.633"/>
			
				<line fill="none" stroke="#000000" stroke-width="3" stroke-miterlimit="10" x1="109.46" y1="493.132" x2="102.827" y2="502.537"/>
			<path fill="none" stroke="#000000" stroke-width="3" stroke-miterlimit="10" d="M201.229,510.543c2.42,0,5.586-0.503,8.835-1.21"
				/>
			<path fill="none" stroke="#000000" stroke-width="3" stroke-miterlimit="10" d="M75.006,562.367
				c3.004,4.091,2.881,15.766,2.881,15.766"/>
			
				<line fill="none" stroke="#000000" stroke-width="3" stroke-miterlimit="10" x1="159.096" y1="555.3" x2="152.763" y2="560.899"/>
			
				<line fill="none" stroke="#000000" stroke-width="3" stroke-miterlimit="10" x1="152.763" y1="557.624" x2="158.893" y2="555.3"/>
			<path fill="none" stroke="#000000" stroke-width="3" stroke-miterlimit="10" d="M336.465,108.765c0,0,0.517-3.982,1.563-9.663
				c2.012-10.941,5.98-28.148,12.002-35.406c0,0-13.823,3.479-28.393,12.953l-22.793-20.306l-23.73,20.306
				c0,0-20.551-14.312-26.341-11.023c0,0,12.219,21.081,13.347,43.139"/>
			<polyline fill="none" stroke="#000000" stroke-width="3" stroke-miterlimit="10" points="301.779,99.102 338.027,99.102 
				338.585,99.102 			"/>
			<path fill="none" stroke="#000000" stroke-width="3" stroke-miterlimit="10" d="M314.528,90.58
				c3.547-4.852,7.108-5.41,7.108-5.41"/>
			<path fill="none" stroke="#000000" stroke-width="3" stroke-miterlimit="10" d="M327.698,90.58
				c-1.984-3.384-6.062-5.41-6.062-5.41"/>
			<line fill="none" stroke="#000000" stroke-width="3" stroke-miterlimit="10" x1="321.637" y1="85.17" x2="321.637" y2="76.649"/>
			<path fill="none" stroke="#000000" stroke-width="3" stroke-miterlimit="10" d="M266.7,90.58c4.022-4.73,8.032-6.769,8.032-6.769
				"/>
			<path fill="none" stroke="#000000" stroke-width="3" stroke-miterlimit="10" d="M283.336,90.58
				c-3.697-5.926-8.604-6.769-8.604-6.769"/>
			
				<line fill="none" stroke="#000000" stroke-width="3" stroke-miterlimit="10" x1="274.732" y1="83.812" x2="275.113" y2="76.649"/>
			<path fill="none" stroke="#000000" stroke-width="3" stroke-miterlimit="10" d="M284.776,178.87
				c-8.413-2.487-26.422-6.497-44.702-2.147c-16.16,3.833-39.157-17.873-24.37-28.882c2.025,3.438,7.544,16.432,26.708,14.625
				c13.931-1.318,40.692,1.386,52.571,7.53h0.014"/>
			<path fill="none" stroke="#000000" stroke-width="3" stroke-miterlimit="10" d="M262.119,108.765
				c0,0-13.891,10.208-20.563,12.749c-8.93,3.398-6.769,17.479,3.847,22.861c0,0,5.056-5.056,11.553,0
				c6.496,5.056,11.525,11.947,32.932,12.545c5.45,0.149,7.217,7.041,5.097,13.075c-1.468,4.254-4.852,8.087-10.193,8.875
				c0,0,0,0-0.014,0c-0.584,0.095-1.21,0.136-1.849,0.149c-18.512,0.258-23.092,16.12-23.336,19.735c0,0,15.63-6.17,25.267-6.619"/>
			<path fill="none" stroke="#000000" stroke-width="3" stroke-miterlimit="10" d="M298.436,119.87
				c0.204,0.748,4.336,16.446-10.479,18.022c-15.889,1.685-14.299-18.022-10.344-18.158l5.764,0.027l15.045,0.082"/>
			<path fill="none" stroke="#000000" stroke-width="3" stroke-miterlimit="10" d="M298.422,119.842c0,0,0,0,0.014,0.027
				c0.19,0.177,2.107,1.903,6.212,1.903"/>
			<path fill="none" stroke="#000000" stroke-width="3" stroke-miterlimit="10" d="M286.394,131.15
				c-4.688-5.423-3.18-10.859-3.017-11.39c0.013-0.027,0.013-0.041,0.013-0.041"/>
		</g>
	</g>
</g>
</svg>
